<?xml version="1.0" encoding="utf-8"?>
<!-- Generator: Adobe Illustrator 25.4.8, SVG Export Plug-In . SVG Version: 6.00 Build 0)  -->
<svg version="1.1" id="Layer_1" xmlns="http://www.w3.org/2000/svg" xmlns:xlink="http://www.w3.org/1999/xlink" x="0px" y="0px"
	 viewBox="0 0 395 395" style="enable-background:new 0 0 395 395;" xml:space="preserve">
<style type="text/css">
	.st0{fill:#00B87A;}
</style>
<g>
	<path class="st0" d="M197.5,1.5c-108.2,0-196,87.7-196,196s87.7,196,196,196s196-87.7,196-196S305.8,1.5,197.5,1.5z M282,163.3
		L173.5,271.8c-1.7,1.7-3.7,3-5.8,3.9c-6.3,2.6-13.8,1.3-19-3.9l-54.6-54.6c-6.8-6.8-6.8-17.9,0-24.7c6.8-6.8,17.9-6.8,24.7,0
		l42.2,42.2l96.2-96.2c6.8-6.8,17.9-6.8,24.7,0C288.9,145.3,288.9,156.4,282,163.3L282,163.3z"/>
</g>
</svg>
