<?xml version="1.0" encoding="utf-8"?>
<!-- Generator: Adobe Illustrator 25.4.8, SVG Export Plug-In . SVG Version: 6.00 Build 0)  -->
<svg version="1.1" id="Layer_1" xmlns="http://www.w3.org/2000/svg" xmlns:xlink="http://www.w3.org/1999/xlink" x="0px" y="0px"
	 viewBox="0 0 395 395" style="enable-background:new 0 0 395 395;" xml:space="preserve">
<style type="text/css">
	.st0{fill:#FFFFFF;}
	.st1{fill:#C42F2F;}
</style>
<g>
	<rect x="88.5" y="80.4" class="st0" width="223" height="237"/>
	<path class="st1" d="M197.5,1.5c-108.2,0-196,87.8-196,196s87.7,196,196,196s196-87.7,196-196S305.8,1.5,197.5,1.5z M271.9,247.1
		c6.8,6.8,6.8,17.9,0,24.7s-17.9,6.8-24.7,0l-49.7-49.5l-49.6,49.6c-6.8,6.8-17.9,6.8-24.7,0s-6.8-17.9,0-24.7l49.6-49.6L123.2,148
		c-6.8-6.8-6.8-17.9,0-24.7s17.9-6.8,24.7,0l49.6,49.6l49.6-49.6c6.8-6.8,17.9-6.8,24.7,0s6.8,17.9,0,24.7l-49.6,49.6L271.9,247.1z"
		/>
</g>
</svg>
