<?xml version="1.0" encoding="utf-8"?>
<!-- Generator: Adobe Illustrator 26.5.0, SVG Export Plug-In . SVG Version: 6.00 Build 0)  -->
<svg version="1.1" id="Layer_1" xmlns="http://www.w3.org/2000/svg" xmlns:xlink="http://www.w3.org/1999/xlink" x="0px" y="0px"
	 viewBox="0 0 1200 1200" style="enable-background:new 0 0 1200 1200;" xml:space="preserve">
<style type="text/css">
	.st0{fill:#F58962;}
	.st1{font-family:'HelveticaNeue-Bold';}
	.st2{font-size:500px;}
</style>
<g>
	<path class="st0" d="M646.7,68.5c-233.6,0-433,147.4-507.1,353.8L82,319.9c-6.9-12.8-21-20-35.4-18.3c-11.9,1.3-22.3,8.6-27.7,19.4
		s-4.9,23.4,1.1,33.8l97.4,173.8h0c9.3,16.7,30.1,23,47.1,14.4l173.3-88.6h0c8.8-4,15.5-11.4,18.7-20.6c3.2-9.1,2.5-19.1-1.9-27.7
		c-4.4-8.6-12.1-15-21.3-17.8c-9.2-2.8-19.2-1.7-27.6,3l-97.4,49.8C273.9,265.5,445,139.4,646.7,139.4
		c258.7,0,467.3,206.1,467.3,460.6c0,252.5-205.4,457.3-461.2,460.6v0c-9.4,0.1-18.4,4-24.9,10.7c-6.5,6.8-10.1,15.8-10,25.2
		c0.1,9.4,4,18.4,10.8,24.9c6.8,6.5,15.9,10.1,25.3,10c293.3-3.8,531-240.5,531-531.5C1184.9,306.6,943.3,68.5,646.7,68.5
		L646.7,68.5z"/>
	<text transform="matrix(1 0 0 1 280.5037 890.9945)" class="st0 st1 st2">pB</text>
</g>
</svg>
